<?xml version="1.0" encoding="UTF-8" standalone="no"?><!DOCTYPE svg PUBLIC "-//W3C//DTD SVG 1.1//EN" "http://www.w3.org/Graphics/SVG/1.1/DTD/svg11.dtd"><svg xmlns="http://www.w3.org/2000/svg" xmlns:xlink="http://www.w3.org/1999/xlink" version="1.1" width="256" height="265" viewBox="0 0 140 50">
<desc>Created with SVGMaker Editor 3.0.0</desc>
<defs>
</defs>
<g transform="matrix(1 0 0 1 39.1253 12.3588)" clip-path="url(#CLIPPATH_315)">
<clipPath id="CLIPPATH_315">
<rect transform="matrix(1 0 0 1 30.5862 12.6412)" x="-69.7115" y="-25" width="139.423" height="50" id="clip0_953_4217"/>
</clipPath>
<path transform=" translate(-39.1253, -12.3588)" style="fill: rgb(255,75,0)" stroke-linecap="round" d="M 44.5264 5.47119 L 41.3258 5.47119 L 41.3258 1.59931 C 41.3258 1.31728 41.2167 1.2085 40.9257 1.2085 L 36.0156 1.2085 C 35.7246 1.2085 35.6155 1.31325 35.6155 1.59931 L 35.6155 5.47119 L 33.7242 5.47119 C 33.3039 5.47119 33.2069 5.56788 33.2069 5.9869 L 33.2069 10.5074 C 33.2069 10.9265 33.3039 11.0232 33.7242 11.0232 L 35.6155 11.0232 L 35.6155 23.1182 C 35.6155 23.4003 35.7246 23.5091 36.0156 23.5091 L 40.9257 23.5091 C 41.2167 23.5091 41.3258 23.4043 41.3258 23.1182 L 41.3258 11.0232 L 44.5264 11.0232 C 44.9467 11.0232 45.0437 10.9265 45.0437 10.5074 L 45.0437 5.9869 C 45.0437 5.56788 44.9467 5.47119 44.5264 5.47119 Z"/>
</g>
<g transform="matrix(1 0 0 1 68.73965 11.75465)" clip-path="url(#CLIPPATH_316)">
<clipPath id="CLIPPATH_316">
<rect transform="matrix(1 0 0 1 0.97185 13.24535)" x="-69.7115" y="-25" width="139.423" height="50" id="clip0_953_4217"/>
</clipPath>
<path transform=" translate(-68.73965, -11.75465)" style="fill: rgb(255,75,0)" stroke-linecap="round" d="M 71.1947 0 L 66.2846 0 C 65.9936 0 65.8845 0.10475 65.8845 0.39081 L 65.8845 23.1185 C 65.8845 23.4005 65.9936 23.5093 66.2846 23.5093 L 71.1947 23.5093 C 71.4857 23.5093 71.5948 23.4045 71.5948 23.1185 L 71.5948 0.39081 C 71.5948 0.10878 71.4857 0 71.1947 0 Z"/>
</g>
<g transform="matrix(1 0 0 1 23.20636 14.48831)" clip-path="url(#CLIPPATH_317)">
<clipPath id="CLIPPATH_317">
<rect transform="matrix(1 0 0 1 46.50514 10.51169)" x="-69.7115" y="-25" width="139.423" height="50" id="clip0_953_4217"/>
</clipPath>
<path transform=" translate(-23.20636, -14.48831)" style="fill: rgb(255,75,0)" stroke-linecap="round" d="M 19.5678 13.0943 C 20.1578 11.6478 21.6692 10.6607 23.2453 10.6809 C 24.3041 10.6809 25.2134 11.0798 25.9651 11.809 C 26.3045 12.1394 26.5753 12.5221 26.7693 12.9371 C 26.7935 12.9895 26.8178 13.0419 26.838 13.0943 L 19.5678 13.0943 Z M 32.6574 12.6873 C 31.8168 8.32794 27.9857 5.13294 23.2453 5.12891 C 17.8826 5.13294 13.5705 9.33922 13.5827 14.5568 C 13.6231 25.2377 29.2263 27.3972 32.4634 17.4134 C 32.5483 17.1515 32.4634 17.0346 32.1118 17.0346 L 26.6884 17.0346 C 26.3449 17.0346 26.2641 17.0467 26.0459 17.2482 C 25.0315 18.3521 22.1905 19.0733 20.4407 17.2603 C 20.0123 16.8453 19.693 16.3497 19.4991 15.8098 L 32.3139 15.8098 C 32.7341 15.8098 32.8271 15.7131 32.8271 15.2981 C 32.8271 15.2981 32.8675 13.9927 32.6493 12.6873"/>
</g>
<g transform="matrix(1 0 0 1 55.00686 14.48831)" clip-path="url(#CLIPPATH_318)">
<clipPath id="CLIPPATH_318">
<rect transform="matrix(1 0 0 1 14.70464 10.51169)" x="-69.7115" y="-25" width="139.423" height="50" id="clip0_953_4217"/>
</clipPath>
<path transform=" translate(-55.00686, -14.48831)" style="fill: rgb(255,75,0)" stroke-linecap="round" d="M 51.3683 13.0943 C 51.9583 11.6478 53.4697 10.6607 55.0458 10.6809 C 56.1046 10.6809 57.0139 11.0798 57.7656 11.809 C 58.1051 12.1394 58.3758 12.5221 58.5698 12.9371 C 58.594 12.9895 58.6183 13.0419 58.6385 13.0943 L 51.3683 13.0943 Z M 64.4579 12.6873 C 63.6173 8.32794 59.7862 5.13294 55.0458 5.12891 C 49.6831 5.13294 45.3711 9.33922 45.3832 14.5568 C 45.4236 25.2377 61.0269 27.3972 64.2639 17.4134 C 64.3488 17.1515 64.2639 17.0346 63.9123 17.0346 L 58.489 17.0346 C 58.1455 17.0346 58.0646 17.0467 57.8464 17.2482 C 56.8321 18.3521 53.9911 19.0733 52.2412 17.2603 C 51.8128 16.8453 51.4936 16.3497 51.2996 15.8098 L 64.1144 15.8098 C 64.5347 15.8098 64.6276 15.7131 64.6276 15.2981 C 64.6276 15.2981 64.668 13.9927 64.4498 12.6873"/>
</g>
<g transform="matrix(1 0 0 1 82.46316 14.48831)" clip-path="url(#CLIPPATH_319)">
<clipPath id="CLIPPATH_319">
<rect transform="matrix(1 0 0 1 -12.75166 10.51169)" x="-69.7115" y="-25" width="139.423" height="50" id="clip0_953_4217"/>
</clipPath>
<path transform=" translate(-82.46316, -14.48831)" style="fill: rgb(255,75,0)" stroke-linecap="round" d="M 78.8246 13.0943 C 79.4146 11.6478 80.926 10.6607 82.5021 10.6809 C 83.5609 10.6809 84.4702 11.0798 85.2219 11.809 C 85.5614 12.1394 85.8321 12.5221 86.0261 12.9371 C 86.0503 12.9895 86.0746 13.0419 86.0948 13.0943 L 78.8246 13.0943 Z M 91.9142 12.6873 C 91.0736 8.32794 87.2425 5.13294 82.5021 5.12891 C 77.1394 5.13294 72.8274 9.33922 72.8395 14.5568 C 72.8799 25.2377 88.4832 27.3972 91.7202 17.4134 C 91.8051 17.1515 91.7202 17.0346 91.3686 17.0346 L 85.9453 17.0346 C 85.6018 17.0346 85.5209 17.0467 85.3027 17.2482 C 84.2884 18.3521 81.4474 19.0733 79.6975 17.2603 C 79.2691 16.8453 78.9539 16.3497 78.7559 15.8098 L 91.5707 15.8098 C 91.991 15.8098 92.0839 15.7131 92.0839 15.2981 C 92.0839 15.2981 92.1243 13.9927 91.9061 12.6873"/>
</g>
<g transform="matrix(1 0 0 1 7.79358 14.48624)" clip-path="url(#CLIPPATH_320)">
<clipPath id="CLIPPATH_320">
<rect transform="matrix(1 0 0 1 61.91792 10.51376)" x="-69.7115" y="-25" width="139.423" height="50" id="clip0_953_4217"/>
</clipPath>
<path transform=" translate(-7.79358, -14.48624)" style="fill: rgb(255,75,0)" stroke-linecap="round" d="M 13.1422 5.47131 L 12.4471 5.47131 C 10.6649 5.47131 8.99182 5.94271 7.55718 6.7606 C 7.60972 6.48662 7.63801 6.18848 7.63801 5.8581 C 7.63801 5.57607 7.52889 5.46729 7.23792 5.46729 L 2.33185 5.46729 C 2.04088 5.46729 1.93176 5.57204 1.93176 5.8581 L 1.93176 23.1143 C 1.93176 23.3964 2.04088 23.5052 2.33185 23.5052 L 7.24196 23.5052 C 7.53293 23.5052 7.64205 23.4004 7.64205 23.1143 L 7.64205 14.875 C 7.64205 13.8436 8.05425 12.8766 8.80189 12.1474 C 9.54952 11.4181 10.5477 11.0193 11.6065 11.0193 L 13.1422 11.0193 C 13.5625 11.0193 13.6554 10.9226 13.6554 10.5076 L 13.6554 5.983 C 13.6554 5.56398 13.5584 5.47131 13.1422 5.47131 Z"/>
</g>
<g transform="matrix(1 0 0 1 9.62372 40.59231)" clip-path="url(#CLIPPATH_321)">
<clipPath id="CLIPPATH_321">
<rect transform="matrix(1 0 0 1 60.08778 -15.59231)" x="-69.7115" y="-25" width="139.423" height="50" id="clip0_953_4217"/>
</clipPath>
<path transform=" translate(-9.62372, -40.59231)" style="fill: rgb(255,75,0)" stroke-linecap="round" d="M 5.98511 39.1983 C 6.57514 37.7518 8.08656 36.7647 9.66265 36.7849 C 10.7215 36.7849 11.6307 37.1838 12.3824 37.913 C 12.7219 38.2434 12.9926 38.6261 13.1866 39.0411 C 13.2109 39.0935 13.2351 39.1459 13.2553 39.1983 L 5.98511 39.1983 Z M 19.0747 38.7913 C 18.2341 34.4319 14.403 31.2369 9.66265 31.2329 C 4.29991 31.2369 -0.0121 35.4432 0.00003 40.6608 C 0.04044 51.3417 15.6437 53.5012 18.8807 43.5174 C 18.9656 43.2555 18.8807 43.1386 18.5292 43.1386 L 13.1058 43.1386 C 12.7623 43.1386 12.6815 43.1507 12.4632 43.3522 C 11.4489 44.4561 8.60788 45.1773 6.85802 43.3643 C 6.42965 42.9493 6.11039 42.4537 5.91641 41.9138 L 18.7312 41.9138 C 19.1515 41.9138 19.2445 41.8171 19.2445 41.4021 C 19.2445 41.4021 19.2849 40.0967 19.0666 38.7913"/>
</g>
<g transform="matrix(1 0 0 1 37.07986 40.59231)" clip-path="url(#CLIPPATH_322)">
<clipPath id="CLIPPATH_322">
<rect transform="matrix(1 0 0 1 32.63164 -15.59231)" x="-69.7115" y="-25" width="139.423" height="50" id="clip0_953_4217"/>
</clipPath>
<path transform=" translate(-37.07986, -40.59231)" style="fill: rgb(255,75,0)" stroke-linecap="round" d="M 33.4413 39.1983 C 34.0313 37.7518 35.5427 36.7647 37.1188 36.7849 C 38.1776 36.7849 39.0869 37.1838 39.8386 37.913 C 40.1781 38.2434 40.4488 38.6261 40.6428 39.0411 C 40.667 39.0935 40.6913 39.1459 40.7115 39.1983 L 33.4413 39.1983 Z M 46.5309 38.7913 C 45.6903 34.4319 41.8592 31.2369 37.1188 31.2329 C 31.7561 31.2369 27.4441 35.4432 27.4562 40.6608 C 27.4966 51.3417 43.0999 53.5012 46.3369 43.5174 C 46.4218 43.2555 46.3369 43.1386 45.9853 43.1386 L 40.562 43.1386 C 40.2185 43.1386 40.1376 43.1507 39.9194 43.3522 C 38.9051 44.4561 36.0641 45.1773 34.3142 43.3643 C 33.8858 42.9493 33.5666 42.4537 33.3726 41.9138 L 46.1874 41.9138 C 46.6077 41.9138 46.7006 41.8171 46.7006 41.4021 C 46.7006 41.4021 46.741 40.0967 46.5228 38.7913"/>
</g>
<g transform="matrix(1 0 0 1 129.79043 40.59231)" clip-path="url(#CLIPPATH_323)">
<clipPath id="CLIPPATH_323">
<rect transform="matrix(1 0 0 1 -60.07893 -15.59231)" x="-69.7115" y="-25" width="139.423" height="50" id="clip0_953_4217"/>
</clipPath>
<path transform=" translate(-129.79043, -40.59231)" style="fill: rgb(255,75,0)" stroke-linecap="round" d="M 126.156 39.1983 C 126.746 37.7518 128.257 36.7647 129.833 36.7849 C 130.892 36.7849 131.801 37.1838 132.553 37.913 C 132.892 38.2434 133.163 38.6261 133.357 39.0411 C 133.381 39.0935 133.406 39.1459 133.426 39.1983 L 126.156 39.1983 Z M 139.241 38.7913 C 138.401 34.4319 134.57 31.2369 129.829 31.2329 C 124.466 31.2369 120.154 35.4432 120.167 40.6608 C 120.207 51.3417 135.81 53.5012 139.047 43.5174 C 139.132 43.2555 139.047 43.1386 138.696 43.1386 L 133.272 43.1386 C 132.929 43.1386 132.848 43.1507 132.63 43.3522 C 131.615 44.4561 128.774 45.1773 127.025 43.3643 C 126.596 42.9493 126.281 42.4537 126.083 41.9138 L 138.898 41.9138 C 139.318 41.9138 139.411 41.8171 139.411 41.4021 C 139.411 41.4021 139.451 40.0967 139.233 38.7913"/>
</g>
<g transform="matrix(1 0 0 1 72.9304 38.4628)" clip-path="url(#CLIPPATH_324)">
<clipPath id="CLIPPATH_324">
<rect transform="matrix(1 0 0 1 -3.2189 -13.4628)" x="-69.7115" y="-25" width="139.423" height="50" id="clip0_953_4217"/>
</clipPath>
<path transform=" translate(-72.9304, -38.4628)" style="fill: rgb(255,75,0)" stroke-linecap="round" d="M 78.3315 31.5752 L 75.1308 31.5752 L 75.1308 27.7033 C 75.1308 27.4213 75.0217 27.3125 74.7307 27.3125 L 69.8206 27.3125 C 69.5297 27.3125 69.4205 27.4173 69.4205 27.7033 L 69.4205 31.5752 L 67.5292 31.5752 C 67.109 31.5752 67.012 31.6719 67.012 32.0909 L 67.012 36.6115 C 67.012 37.0305 67.109 37.1272 67.5292 37.1272 L 69.4205 37.1272 L 69.4205 49.2222 C 69.4205 49.5043 69.5297 49.6131 69.8206 49.6131 L 74.7307 49.6131 C 75.0217 49.6131 75.1308 49.5083 75.1308 49.2222 L 75.1308 37.1272 L 78.3315 37.1272 C 78.7518 37.1272 78.8488 37.0305 78.8488 36.6115 L 78.8488 32.0909 C 78.8488 31.6719 78.7518 31.5752 78.3315 31.5752 Z"/>
</g>
<g transform="matrix(1 0 0 1 23.35235 37.9553)" clip-path="url(#CLIPPATH_325)">
<clipPath id="CLIPPATH_325">
<rect transform="matrix(1 0 0 1 46.35915 -12.9553)" x="-69.7115" y="-25" width="139.423" height="50" id="clip0_953_4217"/>
</clipPath>
<path transform=" translate(-23.35235, -37.9553)" style="fill: rgb(255,75,0)" stroke-linecap="round" d="M 25.8074 26.2974 L 20.8973 26.2974 C 20.6063 26.2974 20.4972 26.4021 20.4972 26.6882 L 20.4972 49.2224 C 20.4972 49.5045 20.6063 49.6132 20.8973 49.6132 L 25.8074 49.6132 C 26.0984 49.6132 26.2075 49.5085 26.2075 49.2224 L 26.2075 26.6882 C 26.2075 26.4061 26.0984 26.2974 25.8074 26.2974 Z"/>
</g>
<g transform="matrix(1 0 0 1 86.00785 40.59025)" clip-path="url(#CLIPPATH_326)">
<clipPath id="CLIPPATH_326">
<rect transform="matrix(1 0 0 1 -16.29635 -15.59025)" x="-69.7115" y="-25" width="139.423" height="50" id="clip0_953_4217"/>
</clipPath>
<path transform=" translate(-86.00785, -40.59025)" style="fill: rgb(255,75,0)" stroke-linecap="round" d="M 91.3605 31.5753 L 90.6654 31.5753 C 88.8832 31.5753 87.2101 32.0467 85.7755 32.8646 C 85.828 32.5906 85.8563 32.2925 85.8563 31.9621 C 85.8563 31.6801 85.7472 31.5713 85.4562 31.5713 L 80.5461 31.5713 C 80.2551 31.5713 80.146 31.676 80.146 31.9621 L 80.146 49.2183 C 80.146 49.5004 80.2551 49.6092 80.5461 49.6092 L 85.4562 49.6092 C 85.7472 49.6092 85.8563 49.5044 85.8563 49.2183 L 85.8563 40.979 C 85.8563 39.9476 86.2685 38.9806 87.0161 38.2514 C 87.7637 37.5221 88.7619 37.1233 89.8207 37.1233 L 91.3564 37.1233 C 91.7767 37.1233 91.8697 37.0266 91.8697 36.6116 L 91.8697 32.087 C 91.8697 31.668 91.7727 31.5753 91.3564 31.5753"/>
</g>
<g transform="matrix(1 0 0 1 57.17368 40.5923)" clip-path="url(#CLIPPATH_327)">
<clipPath id="CLIPPATH_327">
<rect transform="matrix(1 0 0 1 12.53782 -15.5923)" x="-69.7115" y="-25" width="139.423" height="50" id="clip0_953_4217"/>
</clipPath>
<path transform=" translate(-57.17368, -40.5923)" style="fill: rgb(255,75,0)" stroke-linecap="round" d="M 59.9721 43.2273 C 59.2164 43.9606 58.2021 44.3514 57.1311 44.3151 C 56.1531 44.2829 55.2196 43.884 54.5326 43.2071 C 53.7809 42.4658 53.3889 41.4747 53.4374 40.4271 C 53.4778 39.5569 53.8294 38.7269 54.4316 38.0822 C 55.1792 37.2885 56.2138 36.8534 57.317 36.8655 C 58.2586 36.8776 59.1679 37.2281 59.859 37.8486 C 60.1621 38.1225 60.4167 38.4368 60.6106 38.7752 C 60.7157 38.9565 60.8087 39.0129 61.0633 39.0129 L 66.4826 39.0129 C 66.7049 39.0129 66.7857 38.9162 66.7493 38.743 C 65.8643 34.4279 61.9483 31.1805 57.2524 31.1846 C 51.8896 31.1886 47.5776 35.3949 47.5897 40.6125 C 47.6019 45.7978 51.926 50 57.2645 50 C 61.9564 50 65.8683 46.7527 66.7493 42.4416 C 66.7857 42.2684 66.7049 42.1717 66.4826 42.1717 L 61.0673 42.1717 C 60.8127 42.1717 60.7157 42.2281 60.6147 42.4094 C 60.445 42.7075 60.2308 42.9815 59.9762 43.2273"/>
</g>
<g transform="matrix(1 0 0 1 109.66163 40.5923)" clip-path="url(#CLIPPATH_328)">
<clipPath id="CLIPPATH_328">
<rect transform="matrix(1 0 0 1 -39.95013 -15.5923)" x="-69.7115" y="-25" width="139.423" height="50" id="clip0_953_4217"/>
</clipPath>
<path transform=" translate(-109.66163, -40.5923)" style="fill: rgb(255,75,0)" stroke-linecap="round" d="M 112.46 43.2273 C 111.704 43.9606 110.69 44.3514 109.619 44.3151 C 108.641 44.2829 107.707 43.884 107.02 43.2071 C 106.269 42.4658 105.877 41.4747 105.921 40.4271 C 105.962 39.5569 106.313 38.7269 106.919 38.0822 C 107.667 37.2885 108.702 36.8534 109.805 36.8655 C 110.746 36.8776 111.656 37.2281 112.347 37.8486 C 112.65 38.1225 112.904 38.4368 113.098 38.7752 C 113.204 38.9565 113.296 39.0129 113.551 39.0129 L 118.97 39.0129 C 119.193 39.0129 119.273 38.9162 119.237 38.743 C 118.352 34.4279 114.436 31.1805 109.74 31.1846 C 104.377 31.1886 100.065 35.3949 100.078 40.6125 C 100.09 45.7978 104.414 50 109.752 50 C 114.444 50 118.356 46.7527 119.237 42.4416 C 119.273 42.2684 119.193 42.1717 118.97 42.1717 L 113.555 42.1717 C 113.3 42.1717 113.204 42.2281 113.102 42.4094 C 112.933 42.7075 112.719 42.9815 112.464 43.2273"/>
</g>
<g transform="matrix(1 0 0 1 95.97565 37.20365)" clip-path="url(#CLIPPATH_329)">
<clipPath id="CLIPPATH_329">
<rect transform="matrix(1 0 0 1 -26.26415 -12.20365)" x="-69.7115" y="-25" width="139.423" height="50" id="clip0_953_4217"/>
</clipPath>
<path transform=" translate(-95.97565, -37.20365)" style="fill: rgb(255,75,0)" stroke-linecap="round" d="M 98.8975 27.7113 C 98.8975 26.0997 97.5881 24.7983 95.9757 24.7983 C 94.3632 24.7983 93.0538 26.1037 93.0538 27.7113 C 93.0538 29.3189 94.3632 30.6243 95.9757 30.6243 C 97.5881 30.6243 98.8975 29.3189 98.8975 27.7113 Z M 98.8288 31.9619 L 98.8288 49.2182 C 98.8288 49.5002 98.7197 49.609 98.4287 49.609 L 93.5186 49.609 C 93.2276 49.609 93.1185 49.5042 93.1185 49.2182 L 93.1185 31.9619 C 93.1185 31.6799 93.2276 31.5711 93.5186 31.5711 L 98.4287 31.5711 C 98.7197 31.5711 98.8288 31.6759 98.8288 31.9619 Z"/>
</g>
<g transform="matrix(0.12195 0 0 0.12195 119.82051 15.76928)">
<g transform="translate(0,0)" style="">
<path transform="translate(0,0)" style="fill: rgb(242,244,249)" stroke-linecap="round" d="M120 101.876C120 110.126 113.25 116.876 105 116.876L-105 116.876C-113.25 116.876-120 110.126-120 101.876L-120 11.876C-120 3.626-115.23-7.893-109.39-13.733L-10.61-112.5135C-4.78-118.3435 4.77-118.3435 10.6-112.5135L109.39-13.724C115.22-7.894 120 3.636 120 11.886L120 101.886 120 101.876Z"/>
<path transform="translate(0,0)" style="fill: rgb(24,188,242)" stroke-linecap="round" d="M109.39-13.733L10.61-112.5135C4.78-118.3435-4.77-118.3435-10.6-112.5135L-109.39-13.733C-115.22-7.903-120 3.626-120 11.876L-120 101.876C-120 110.126-113.25 116.876-105 116.876L-12.73 116.876-53.36 76.246C-55.45 76.966-57.68 77.376-60 77.376-71.3 77.376-80.5 68.176-80.5 56.876-80.5 45.576-71.3 36.376-60 36.376-48.7 36.376-39.5 45.576-39.5 56.876-39.5 59.206-39.91 61.436-40.63 63.526L-9 95.156-9-20.724C-15.8-24.0635-20.5-31.0435-20.5-39.1135-20.5-50.4135-11.3-59.6135 0-59.6135 11.3-59.6135 20.5-50.4135 20.5-39.1135 20.5-31.0435 15.8-24.0635 9-20.724L9 60.546 40.46 29.086C39.84 27.126 39.5 25.046 39.5 22.886 39.5 11.586 48.7 2.386 60 2.386 71.3 2.386 80.5 11.586 80.5 22.886 80.5 34.186 71.3 43.386 60 43.386 57.5 43.386 55.12 42.916 52.91 42.096L9 86.006 9 116.886 105 116.886C113.25 116.886 120 110.136 120 101.886L120 11.886C120 3.636 115.23-7.884 109.39-13.724L109.39-13.733Z"/>
</g>
</g>
</svg>